<?xml version="1.0" encoding="UTF-8" standalone="no"?>
<!-- Created with Inkscape (http://www.inkscape.org/) -->

<svg
   xmlns:dc="http://purl.org/dc/elements/1.1/"
   xmlns:cc="http://creativecommons.org/ns#"
   xmlns:rdf="http://www.w3.org/1999/02/22-rdf-syntax-ns#"
   xmlns:svg="http://www.w3.org/2000/svg"
   xmlns="http://www.w3.org/2000/svg"
   xmlns:sodipodi="http://sodipodi.sourceforge.net/DTD/sodipodi-0.dtd"
   xmlns:inkscape="http://www.inkscape.org/namespaces/inkscape"
   id="svg2"
   version="1.1"
   inkscape:version="0.92.3 (2405546, 2018-03-11)"
   width="20"
   height="24"
   sodipodi:docname="clefs.svg">
  <sodipodi:namedview
     pagecolor="#ffffff"
     bordercolor="#666666"
     borderopacity="1"
     objecttolerance="10"
     gridtolerance="10"
     guidetolerance="10"
     inkscape:pageopacity="0"
     inkscape:pageshadow="2"
     inkscape:window-width="1440"
     inkscape:window-height="837"
     id="namedview4"
     showgrid="true"
     inkscape:zoom="19.666667"
     inkscape:cx="5.4778963"
     inkscape:cy="14.602754"
     inkscape:window-x="-8"
     inkscape:window-y="-8"
     inkscape:window-maximized="1"
     inkscape:current-layer="svg2"
     inkscape:snap-bbox="true">
    <inkscape:grid
       type="xygrid"
       id="grid2987"
       empspacing="5"
       visible="true"
       enabled="true"
       snapvisiblegridlinesonly="true" />
  </sodipodi:namedview>
  <metadata
     id="metadata8">
    <rdf:RDF>
      <cc:Work
         rdf:about="">
        <dc:format>image/svg+xml</dc:format>
        <dc:type
           rdf:resource="http://purl.org/dc/dcmitype/StillImage" />
        <dc:title></dc:title>
      </cc:Work>
    </rdf:RDF>
  </metadata>
  <defs
     id="defs6">
    <inkscape:perspective
       id="perspective10"
       inkscape:persp3d-origin="0.5 : 0.33333333 : 1"
       inkscape:vp_z="1 : 0.5 : 1"
       inkscape:vp_y="0 : 1000 : 0"
       inkscape:vp_x="0 : 0.5 : 1"
       sodipodi:type="inkscape:persp3d" />
  </defs>
  <path
     inkscape:connector-curvature="0"
     id="path2990"
     d="m 8.980246,14.119495 c -9.4e-6,0.581006 -0.1827754,1.092542 -0.548299,1.53461 -0.3520033,0.44207 -0.7919957,0.745202 -1.3199801,0.909398 0.013535,0.126306 0.020303,0.322079 0.020313,0.58732 -7.5e-6,0.341025 -0.020313,0.738886 -0.060919,1.193586 -0.067696,0.644156 -0.3046177,1.193583 -0.710759,1.648285 C 5.9544491,20.46002 5.453534,20.693685 4.8578563,20.693689 4.2350926,20.693685 3.693563,20.497912 3.2332662,20.106369 2.7864936,19.72745 2.5631127,19.253806 2.5631151,18.685434 c -2.4e-6,-0.290504 0.1218418,-0.543115 0.365533,-0.757832 0.2436853,-0.20209 0.5279883,-0.303134 0.8529098,-0.303133 0.2842992,-1e-6 0.5212183,0.101043 0.7107581,0.303133 0.2030692,0.214717 0.3046059,0.467328 0.3046107,0.757832 -4.8e-6,0.265239 -0.1015415,0.486273 -0.3046107,0.663102 -0.1895398,0.189456 -0.4264589,0.284185 -0.7107581,0.284188 -0.1083097,-3e-6 -0.2166156,-0.01894 -0.3249181,-0.05684 0.1489172,0.214716 0.3452217,0.385229 0.5889139,0.511537 0.2436843,0.126302 0.514449,0.189454 0.8122951,0.189458 0.4873718,-4e-6 0.88675,-0.195777 1.1981354,-0.58732 0.3519881,-0.41681 0.5415229,-0.884138 0.5686061,-1.401991 0.027071,-0.517852 0.040607,-0.903083 0.040616,-1.155694 -6.6e-6,-0.214718 -6.6e-6,-0.372599 0,-0.473644 -0.297848,0.05053 -0.5686127,0.07579 -0.8122951,0.07579 -1.0424501,10e-7 -1.9359738,-0.347339 -2.6805737,-1.042019 -0.7310679,-0.707308 -1.0966004,-1.553554 -1.0965984,-2.538738 -2e-6,-0.227345 0.020305,-0.46101 0.060922,-0.700995 0.05415,-0.23997 0.1083029,-0.442058 0.1624582,-0.60626 0.054151,-0.176827 0.1489183,-0.391547 0.2843031,-0.644163 C 2.7323406,10.94924 2.8338773,10.766098 2.8880331,10.652417 2.9557221,10.526119 3.0978729,10.32403 3.314488,10.046151 3.5446348,9.7556569 3.6800171,9.5788285 3.7206355,9.5156689 3.7747854,9.452517 3.9372437,9.2630659 4.2080126,8.9472938 4.4787729,8.6189044 4.6276934,8.4357618 4.6547745,8.3978619 4.3975434,7.6526694 4.2080081,7.0148279 4.086168,6.4843357 3.977858,5.953864 3.9237051,5.3602294 3.923709,4.7034301 3.9237051,4.337157 3.9710889,3.9771872 4.0658606,3.6235193 4.1741625,3.2698778 4.3027757,2.9730605 4.4517008,2.7330666 4.600617,2.4804701 4.7495375,2.259436 4.898463,2.0699634 5.0609171,1.8678898 5.2030685,1.7226388 5.324918,1.6342099 5.4467568,1.533181 5.5279863,1.4826588 5.5686067,1.4826434 c 0.1083,1.54e-5 0.3046044,0.1957885 0.5889141,0.58732 0.2842964,0.3789304 0.5550611,0.8778361 0.812295,1.4967186 0.2572188,0.6189087 0.3858325,1.1809671 0.38584,1.6861764 -7.5e-6,0.6946904 -0.1692352,1.3451624 -0.507685,1.9514179 -0.3249236,0.6062747 -0.7987624,1.2756924 -1.421516,2.0082554 0.2978357,0.8336223 0.5415246,1.5788233 0.731066,2.2356053 0.8258257,0.01263 1.5027375,0.284191 2.0307371,0.814669 0.5279836,0.530487 0.7919787,1.149382 0.7919881,1.856689 M 7.0916599,16.12775 C 7.4165703,16.014076 7.6941047,15.805672 7.924262,15.502538 8.1544041,15.199408 8.2694794,14.858383 8.269488,14.479465 8.2694794,14.012138 8.1002517,13.59533 7.7618029,13.229043 7.4368773,12.85013 7.0036545,12.616465 6.4621308,12.528048 6.8005805,13.828996 7.0104232,15.028895 7.0916599,16.12775 M 5.3452253,15.388864 c -0.054158,0 -0.1624641,-0.03789 -0.324918,-0.113675 C 4.8713817,15.199408 4.7021538,15.092047 4.5126229,14.95311 4.3366213,14.801546 4.1809316,14.593143 4.0455532,14.327899 3.9101668,14.062661 3.8424757,13.778473 3.8424795,13.475337 3.8424757,12.99538 4.0049345,12.565944 4.3298565,12.187023 4.6683082,11.795482 5.1218391,11.555502 5.6904507,11.467083 5.5279863,10.923976 5.3249127,10.305079 5.0812295,9.6103935 4.715692,10.052469 4.4381582,10.399809 4.2486271,10.652413 c -0.1895396,0.252616 -0.4129206,0.581011 -0.6701436,0.985182 -0.25723,0.391551 -0.4467653,0.776782 -0.5686065,1.155694 -0.1083089,0.366289 -0.1624618,0.75152 -0.162459,1.155693 -2.8e-6,0.63153 0.3113767,1.180958 0.9341394,1.648286 0.6362933,0.467331 1.3267435,0.700995 2.0713523,0.700995 0.2707591,0 0.5347541,-0.01894 0.7919881,-0.05684 -0.081242,-1.149375 -0.297848,-2.393481 -0.6498361,-3.732321 -0.4467677,0.02527 -0.8055315,0.157886 -1.0762912,0.397862 -0.2572315,0.239983 -0.3858447,0.517856 -0.3858403,0.833616 -4.4e-6,0.543116 0.3181442,0.966238 0.9544468,1.269368 0.054148,0.05052 0.081224,0.107361 0.08123,0.170512 0.013535,0.05052 -0.00681,0.101046 -0.060922,0.151567 -0.040619,0.03789 -0.094773,0.05684 -0.162459,0.05684 M 6.1575208,2.9414704 C 5.6430614,3.2446169 5.230145,3.6551088 4.9187705,4.1729477 4.6209243,4.6781813 4.4720037,5.2212936 4.4720081,5.8022867 4.4720037,6.2317356 4.6480008,6.9643059 5,8 5.5009098,7.3811131 5.8867494,6.7874786 6.1575208,6.2190945 6.4418172,5.6507316 6.5839691,5.0570969 6.5839757,4.4381889 6.5839691,4.1098076 6.5568925,3.850882 6.5027458,3.6614109 6.4485868,3.4719663 6.3335115,3.2319863 6.1575208,2.9414704"
     style="stroke-width:0.91297877" />
  <path
     inkscape:connector-curvature="0"
     d="m 18,17.715829 c -0.137832,-0.149 -0.206742,-0.325943 -0.206733,-0.530832 -9e-6,-0.223501 0.0689,-0.400447 0.206733,-0.530833 0.137813,-0.148999 0.301477,-0.223501 0.490993,-0.223508 0.189495,7e-6 0.353158,0.07452 0.490992,0.223508 0.137811,0.130386 0.206722,0.307332 0.206734,0.530833 -1.2e-5,0.204889 -0.06893,0.381832 -0.206734,0.530832 -0.137834,0.149012 -0.301497,0.223514 -0.490992,0.223508 -0.189516,6e-6 -0.35318,-0.07449 -0.490993,-0.223508 M 18,14 c -0.137832,-0.148995 -0.206742,-0.325939 -0.206733,-0.530833 -9e-6,-0.223496 0.0689,-0.400441 0.206733,-0.530831 0.137813,-0.148994 0.301477,-0.223499 0.490993,-0.223508 0.189495,9e-6 0.353158,0.07452 0.490992,0.223508 0.137811,0.13039 0.206722,0.307335 0.206734,0.530831 -1.2e-5,0.204894 -0.06893,0.381838 -0.206734,0.530833 -0.137834,0.149016 -0.301497,0.223519 -0.490992,0.223509 C 18.301477,14.223519 18.137813,14.149019 18,14 m -4.677347,-2.598286 c 1.20594,1.3e-5 2.179309,0.335276 2.920112,1.005789 0.740787,0.651911 1.111184,1.564568 1.111194,2.737978 -10e-6,0.763661 -0.146448,1.490064 -0.439308,2.179208 -0.275655,0.670532 -0.628825,1.266554 -1.05951,1.788069 -0.430705,0.502897 -0.973379,1.005792 -1.628028,1.508682 -0.654662,0.484271 -1.29209,0.894035 -1.912286,1.229297 -0.602978,0.335262 -1.292088,0.679839 -2.067336,1.033725 -0.03445,0.03725 -0.07753,0.05588 -0.129208,0.05588 -0.1205992,10e-7 -0.1808941,-0.06518 -0.1808916,-0.195571 -2.5e-6,-0.05588 0.025836,-0.09312 0.07752,-0.111758 0.637425,-0.409764 1.188715,-0.78228 1.653868,-1.117543 0.482375,-0.33526 0.98198,-0.745025 1.49882,-1.229296 0.534055,-0.502891 0.964749,-0.987159 1.292084,-1.452805 0.344548,-0.465639 0.628806,-1.005783 0.852775,-1.620438 0.241182,-0.61464 0.361776,-1.257226 0.361785,-1.927759 -9e-6,-0.931274 -0.215356,-1.741493 -0.646042,-2.430654 -0.430704,-0.707766 -0.999219,-1.061653 -1.705554,-1.061666 -0.499611,1.3e-5 -0.938918,0.176958 -1.317926,0.530833 -0.361782,0.335276 -0.628812,0.782294 -0.801086,1.341053 0.155046,-0.07449 0.310097,-0.111747 0.46515,-0.111757 0.379008,9e-6 0.697721,0.149015 0.956143,0.447015 0.275639,0.298021 0.413461,0.642598 0.413467,1.033728 -6e-6,0.428399 -0.137828,0.800913 -0.413467,1.117542 -0.258422,0.316644 -0.577135,0.474963 -0.956143,0.474955 -0.413471,8e-6 -0.775255,-0.148998 -1.08535,-0.447017 -0.310104,-0.316629 -0.465153,-0.698456 -0.465152,-1.14548 -10e-7,-0.987154 0.310098,-1.834621 0.930302,-2.542409 0.637425,-0.726391 1.395447,-1.089592 2.274068,-1.089605"
     id="path2994"
     style="stroke-width:0.76429313" />
</svg>
