<?xml version="1.0" encoding="UTF-8" standalone="no"?>
<svg
   xmlns:dc="http://purl.org/dc/elements/1.1/"
   xmlns:cc="http://creativecommons.org/ns#"
   xmlns:rdf="http://www.w3.org/1999/02/22-rdf-syntax-ns#"
   xmlns:svg="http://www.w3.org/2000/svg"
   xmlns="http://www.w3.org/2000/svg"
   xmlns:sodipodi="http://sodipodi.sourceforge.net/DTD/sodipodi-0.dtd"
   xmlns:inkscape="http://www.inkscape.org/namespaces/inkscape"
   width="50"
   height="50"
   version="1.1"
   viewBox="0 0 50.000001 50.000001"
   id="svg6"
   sodipodi:docname="magnifying-glass.svg"
   inkscape:version="0.92.3 (2405546, 2018-03-11)">
  <metadata
     id="metadata12">
    <rdf:RDF>
      <cc:Work
         rdf:about="">
        <dc:format>image/svg+xml</dc:format>
        <dc:type
           rdf:resource="http://purl.org/dc/dcmitype/StillImage" />
        <dc:title></dc:title>
      </cc:Work>
    </rdf:RDF>
  </metadata>
  <defs
     id="defs10">
    <inkscape:perspective
       sodipodi:type="inkscape:persp3d"
       inkscape:vp_x="0 : 25 : 1"
       inkscape:vp_y="0 : 1000 : 0"
       inkscape:vp_z="50.000001 : 25 : 1"
       inkscape:persp3d-origin="25 : 16.666667 : 1"
       id="perspective822" />
  </defs>
  <sodipodi:namedview
     pagecolor="#ffffff"
     bordercolor="#666666"
     borderopacity="1"
     objecttolerance="10"
     gridtolerance="10"
     guidetolerance="10"
     inkscape:pageopacity="0"
     inkscape:pageshadow="2"
     inkscape:window-width="1440"
     inkscape:window-height="837"
     id="namedview8"
     showgrid="false"
     inkscape:zoom="4.72"
     inkscape:cx="25"
     inkscape:cy="25"
     inkscape:window-x="-8"
     inkscape:window-y="-8"
     inkscape:window-maximized="1"
     inkscape:current-layer="svg6" />
  <rect
     width="47.881355"
     height="47.881355"
     id="rect2"
     x="-0.63559318"
     y="2.3305085"
     style="fill-opacity:0;stroke-width:0.95762712" />
  <path
     d="m 31.105652,4.5800974 c 7.7822,0 14.129159,6.4645286 14.129159,14.3904356 0,7.926109 -6.347156,14.390437 -14.129159,14.390437 -3.187739,0 -6.125192,-1.097187 -8.493721,-2.922761 A 1.9670873,2.0034629 0 0 1 22.46403,30.6045 L 7.8126611,45.526804 A 1.9670873,2.0034629 0 1 1 5.0313792,42.69409 L 19.682748,27.771787 a 1.9670873,2.0034629 0 0 1 0.163272,-0.150635 c -1.792329,-2.412329 -2.869693,-5.404101 -2.869693,-8.650789 0,-7.926108 6.347155,-14.390436 14.129158,-14.390436 z m 0,3.5956559 c -5.874316,0 -10.598591,4.8120367 -10.598591,10.7945797 0,5.982944 4.724668,10.79458 10.598591,10.79458 5.873922,0 10.59859,-4.812037 10.59859,-10.79458 0,-5.982943 -4.724668,-10.7945797 -10.59859,-10.7945797 z"
     style="color:#000000;text-indent:0;text-decoration:none;text-decoration-line:none;text-decoration-style:solid;text-decoration-color:#000000;text-transform:none;white-space:normal;isolation:auto;mix-blend-mode:normal;solid-color:#000000;fill:#555555;stroke-width:0.99249661;color-rendering:auto;image-rendering:auto;shape-rendering:auto"
     id="path4"
     inkscape:connector-curvature="0" />
</svg>
