<?xml version="1.0" encoding="UTF-8" standalone="no"?>
<!-- Created with Inkscape (http://www.inkscape.org/) -->

<svg
   xmlns:dc="http://purl.org/dc/elements/1.1/"
   xmlns:cc="http://creativecommons.org/ns#"
   xmlns:rdf="http://www.w3.org/1999/02/22-rdf-syntax-ns#"
   xmlns:svg="http://www.w3.org/2000/svg"
   xmlns="http://www.w3.org/2000/svg"
   xmlns:sodipodi="http://sodipodi.sourceforge.net/DTD/sodipodi-0.dtd"
   xmlns:inkscape="http://www.inkscape.org/namespaces/inkscape"
   id="svg2"
   version="1.1"
   inkscape:version="0.92.3 (2405546, 2018-03-11)"
   width="24"
   height="24"
   sodipodi:docname="palette-clefs.svg">
  <sodipodi:namedview
     pagecolor="#ffffff"
     bordercolor="#666666"
     borderopacity="1"
     objecttolerance="10"
     gridtolerance="10"
     guidetolerance="10"
     inkscape:pageopacity="0"
     inkscape:pageshadow="2"
     inkscape:window-width="1440"
     inkscape:window-height="837"
     id="namedview4"
     showgrid="true"
     inkscape:zoom="19.666667"
     inkscape:cx="10.514075"
     inkscape:cy="14.602754"
     inkscape:window-x="-8"
     inkscape:window-y="-8"
     inkscape:window-maximized="1"
     inkscape:current-layer="svg2"
     inkscape:snap-bbox="true">
    <inkscape:grid
       type="xygrid"
       id="grid2987"
       empspacing="5"
       visible="true"
       enabled="true"
       snapvisiblegridlinesonly="true" />
  </sodipodi:namedview>
  <metadata
     id="metadata8">
    <rdf:RDF>
      <cc:Work
         rdf:about="">
        <dc:format>image/svg+xml</dc:format>
        <dc:type
           rdf:resource="http://purl.org/dc/dcmitype/StillImage" />
        <dc:title></dc:title>
      </cc:Work>
    </rdf:RDF>
  </metadata>
  <defs
     id="defs6">
    <inkscape:perspective
       id="perspective10"
       inkscape:persp3d-origin="0.5 : 0.33333333 : 1"
       inkscape:vp_z="1 : 0.5 : 1"
       inkscape:vp_y="0 : 1000 : 0"
       inkscape:vp_x="0 : 0.5 : 1"
       sodipodi:type="inkscape:persp3d" />
  </defs>
  <path
     inkscape:connector-curvature="0"
     id="path2990"
     d="m 10.320384,14.850648 c -1.2e-5,0.667945 -0.241008,1.256024 -0.7229864,1.764241 -0.464151,0.508219 -1.0443245,0.856711 -1.7405242,1.045475 0.017847,0.145206 0.026771,0.370274 0.026784,0.675205 -1.01e-5,0.392054 -0.026784,0.849449 -0.080327,1.372188 -0.089264,0.740545 -0.4016688,1.372184 -0.9372064,1.894926 -0.5355527,0.537254 -1.1960589,0.805884 -1.9815189,0.805888 -0.8211757,-4e-6 -1.5352361,-0.225072 -2.1421829,-0.675203 -0.5891141,-0.435619 -0.8836639,-0.980137 -0.8836606,-1.633557 -3.3e-6,-0.333973 0.1606604,-0.624383 0.4819913,-0.87123 0.3213234,-0.23233 0.6962049,-0.348494 1.1246461,-0.348493 0.3748767,-1e-6 0.6872781,0.116163 0.937205,0.348493 0.2677669,0.246847 0.4016529,0.537257 0.4016594,0.87123 -6.5e-6,0.304929 -0.1338925,0.559037 -0.4016594,0.762326 -0.2499269,0.217804 -0.5623283,0.326708 -0.937205,0.326712 -0.1428171,-4e-6 -0.2856291,-0.02178 -0.4284367,-0.06534 0.1963622,0.246846 0.455209,0.442873 0.7765414,0.588081 0.321322,0.145202 0.6783519,0.217803 1.0710915,0.217808 0.642648,-5e-6 1.1692677,-0.225072 1.5798603,-0.675204 0.464132,-0.479182 0.7140524,-1.01644 0.7497643,-1.611781 0.035696,-0.595342 0.053544,-1.038216 0.053557,-1.328627 -8.7e-6,-0.246846 -8.7e-6,-0.428353 0,-0.544518 -0.392742,0.05809 -0.7497722,0.08713 -1.0710915,0.08713 -1.3745737,1e-6 -2.5527732,-0.399313 -3.534602,-1.197941 -0.9639855,-0.813146 -1.4459763,-1.78602 -1.4459736,-2.918623 -2.7e-6,-0.261363 0.026773,-0.529992 0.080332,-0.805888 0.071402,-0.275875 0.142808,-0.508203 0.2142171,-0.696975 0.071404,-0.203289 0.1963637,-0.450138 0.3748818,-0.740554 0.1963635,-0.290404 0.3302497,-0.50095 0.4016595,-0.631642 0.089253,-0.145198 0.2766936,-0.377527 0.562322,-0.696985 C 3.1529926,9.8338273 3.3315074,9.6305384 3.3850669,9.5579283 3.4564689,9.4853264 3.6706862,9.2675269 4.027722,8.9045045 4.3847461,8.5269767 4.5811126,8.3164295 4.6168218,8.2728584 4.277637,7.4161591 4.027716,6.6828742 3.8670577,6.0730018 3.7242402,5.463153 3.6528342,4.7806899 3.6528395,4.0256105 3.6528342,3.60453 3.7153144,3.1906963 3.8402803,2.7841072 3.9830871,2.3775486 4.1526764,2.036317 4.3490489,1.7604116 4.5454098,1.4700179 4.7417762,1.2159093 4.9381492,0.99808502 5.1523611,0.76577413 5.3398016,0.59878857 5.5004722,0.49712763 5.6611288,0.38098122 5.7682379,0.3228991 5.8218,0.32288142 5.9646043,0.3228991 6.223451,0.54796668 6.5983415,0.99808502 6.9732145,1.4337167 7.3302446,2.0072761 7.6694329,2.7187651 8.0086014,3.4302841 8.1781914,4.0764462 8.1782013,4.6572524 8.1781914,5.4558929 7.9550479,6.2036981 7.5087684,6.9006707 7.0803244,7.5976653 6.455521,8.3672513 5.6343587,9.2094316 c 0.3927258,0.9583614 0.7140537,1.8150704 0.9639828,2.5701304 1.0889331,0.01451 1.9815082,0.326715 2.6777279,0.936571 0.6961998,0.609866 1.0443016,1.32137 1.0443146,2.134515 M 7.8300966,17.159407 C 8.258523,17.028725 8.6244796,16.789135 8.9279649,16.440642 9.2314303,16.092154 9.3831682,15.700099 9.3831784,15.264483 9.3831682,14.727226 9.1600251,14.24805 8.7137465,13.826953 8.2852998,13.391342 7.7140528,13.122711 7,13.021064 7.4462795,14.51668 7.7229778,15.896126 7.8300966,17.159407 M 5.5272495,16.309959 c -0.071414,0 -0.214225,-0.04356 -0.4284366,-0.130684 C 4.9024396,16.092154 4.679296,15.968728 4.4293807,15.809002 4.1973051,15.634758 3.9920128,15.395171 3.813503,15.090236 3.6349826,14.785309 3.5457252,14.458597 3.5457304,14.110102 3.5457252,13.558326 3.7599433,13.064632 4.1883851,12.62901 4.6346672,12.178882 5.2326925,11.902992 5.9824633,11.801342 5.7682379,11.176968 5.5004653,10.465461 5.1791449,9.6668275 4.6971474,10.175052 4.3311917,10.574367 4.081276,10.864769 3.8313495,11.155185 3.5367995,11.53272 3.1976254,11.99737 c -0.3391833,0.45014 -0.5891043,0.893014 -0.7497639,1.328625 -0.142816,0.421099 -0.2142221,0.863974 -0.2142184,1.328625 -3.7e-6,0.726029 0.4105811,1.357671 1.2317554,1.894928 0.8390157,0.53726 1.7494426,0.805888 2.7312831,0.805888 0.3570227,0 0.7051264,-0.02178 1.0443148,-0.06534 C 7.1338709,15.968735 6.8482545,14.538467 6.3841233,12.999289 5.7950158,13.028339 5.32195,13.1808 4.9649265,13.456685 4.6257413,13.732578 4.4561521,14.05203 4.456158,14.415039 c -5.9e-6,0.624386 0.4195046,1.110821 1.2585327,1.45931 0.071399,0.05808 0.1071024,0.123426 0.1071093,0.196026 0.017847,0.05808 -0.00899,0.116166 -0.080332,0.174247 -0.05356,0.04356 -0.1249676,0.06534 -0.2142182,0.06534 M 6.5983415,2 C 5.9199759,2.3485077 5.3755047,2.8204236 4.9649265,3.4157493 4.5721869,3.9965836 4.3758202,4.6209645 4.3758261,5.2888944 4.3758202,5.7826038 4.6078899,6.6247924 5.0720356,7.8154624 5.7325349,7.1039684 6.2413027,6.4215055 6.5983415,5.7680712 6.9732145,5.1146613 7.160656,4.4321982 7.1606646,3.7206798 7.160656,3.3431612 7.1249529,3.0454913 7.053555,2.8276687 6.982141,2.6098765 6.8304028,2.3339871 6.5983415,2"
     style="stroke-width:1.12407947" />
  <path
     inkscape:connector-curvature="0"
     d="m 21.848868,17.994838 c -0.172354,-0.165064 -0.258524,-0.361083 -0.258513,-0.588061 -1.1e-5,-0.247597 0.08616,-0.443619 0.258513,-0.588062 0.172331,-0.165062 0.376987,-0.247596 0.613971,-0.247604 0.236957,8e-6 0.441612,0.08255 0.613969,0.247604 0.172328,0.144443 0.258499,0.340465 0.258514,0.588062 -1.5e-5,0.226978 -0.0862,0.422997 -0.258514,0.588061 -0.172357,0.165077 -0.377012,0.247611 -0.613969,0.247604 -0.236984,7e-6 -0.44164,-0.08252 -0.613971,-0.247604 m 0,-4.116432 c -0.172354,-0.165058 -0.258524,-0.361078 -0.258513,-0.588061 -1.1e-5,-0.247591 0.08616,-0.443613 0.258513,-0.58806 0.172331,-0.165057 0.376987,-0.247595 0.613971,-0.247605 0.236957,10e-6 0.441612,0.08255 0.613969,0.247605 0.172328,0.144447 0.258499,0.340469 0.258514,0.58806 -1.5e-5,0.226983 -0.0862,0.423003 -0.258514,0.588061 -0.172357,0.165082 -0.377012,0.247617 -0.613969,0.247606 -0.236984,1.1e-5 -0.44164,-0.08252 -0.613971,-0.247606 M 16,11 c 1.507988,1.4e-5 2.725154,0.371422 3.651504,1.114223 0.926329,0.722193 1.389499,1.733243 1.389511,3.033158 -1.2e-5,0.845992 -0.183128,1.650708 -0.54934,2.414148 -0.344697,0.742822 -0.786325,1.403101 -1.324882,1.98084 -0.538583,0.557115 -1.217179,1.114226 -2.035796,1.671333 -0.818633,0.53648 -1.615715,0.990421 -2.39125,1.361827 -0.754004,0.371407 -1.615713,0.753132 -2.585136,1.145171 -0.04308,0.04127 -0.09695,0.0619 -0.16157,0.0619 -0.150806,1e-6 -0.226202,-0.07221 -0.226199,-0.216655 -4e-6,-0.0619 0.03231,-0.10316 0.09694,-0.123807 0.797079,-0.453941 1.486449,-0.866617 2.068107,-1.238025 0.603194,-0.371404 1.227934,-0.825346 1.874225,-1.361826 0.667818,-0.557108 1.206387,-1.093584 1.615709,-1.609431 0.430845,-0.51584 0.786301,-1.114217 1.066367,-1.795137 0.30159,-0.680905 0.452389,-1.392768 0.4524,-2.135591 -1.1e-5,-1.031674 -0.269296,-1.929242 -0.807854,-2.692702 -0.538582,-0.78407 -1.249491,-1.176109 -2.132739,-1.176123 -0.624747,1.4e-5 -1.174086,0.196035 -1.648023,0.588061 -0.452401,0.371426 -0.786313,0.866637 -1.001736,1.485636 0.19388,-0.08252 0.387766,-0.123794 0.581655,-0.123805 0.473937,9e-6 0.872477,0.16508 1.195625,0.495207 0.344677,0.330151 0.517019,0.711876 0.517027,1.145174 -8e-6,0.474585 -0.17235,0.887259 -0.517027,1.238024 -0.323148,0.350781 -0.721688,0.526168 -1.195625,0.52616 -0.517032,8e-6 -0.969431,-0.165062 -1.357195,-0.49521 -0.387774,-0.350765 -0.581658,-0.773757 -0.581657,-1.268974 -10e-7,-1.093579 0.387767,-2.032411 1.163312,-2.816505 C 13.953432,11.402368 14.901314,11.00001 16,10.999996"
     id="path2994"
     style="stroke-width:0.89955693" />
</svg>
