<?xml version="1.0" encoding="UTF-8" standalone="no"?>
<!-- Created with Inkscape (http://www.inkscape.org/) -->

<svg
   xmlns:dc="http://purl.org/dc/elements/1.1/"
   xmlns:cc="http://creativecommons.org/ns#"
   xmlns:rdf="http://www.w3.org/1999/02/22-rdf-syntax-ns#"
   xmlns:svg="http://www.w3.org/2000/svg"
   xmlns="http://www.w3.org/2000/svg"
   xmlns:sodipodi="http://sodipodi.sourceforge.net/DTD/sodipodi-0.dtd"
   xmlns:inkscape="http://www.inkscape.org/namespaces/inkscape"
   width="128"
   height="128"
   id="svg2"
   version="1.1"
   inkscape:version="0.92.3 (2405546, 2018-03-11)"
   sodipodi:docname="palette-timesignatures.svg">
  <defs
     id="defs4" />
  <sodipodi:namedview
     id="base"
     pagecolor="#ffffff"
     bordercolor="#666666"
     borderopacity="1.0"
     inkscape:pageopacity="0.0"
     inkscape:pageshadow="2"
     inkscape:zoom="2.8284271"
     inkscape:cx="70.208237"
     inkscape:cy="79.898204"
     inkscape:document-units="px"
     inkscape:current-layer="g4132"
     showgrid="true"
     inkscape:window-width="1440"
     inkscape:window-height="837"
     inkscape:window-x="-8"
     inkscape:window-y="-8"
     inkscape:window-maximized="1"
     inkscape:snap-grids="true">
    <inkscape:grid
       empspacing="5"
       visible="true"
       enabled="true"
       snapvisiblegridlinesonly="true"
       type="xygrid"
       id="grid3085" />
  </sodipodi:namedview>
  <metadata
     id="metadata7">
    <rdf:RDF>
      <cc:Work
         rdf:about="">
        <dc:format>image/svg+xml</dc:format>
        <dc:type
           rdf:resource="http://purl.org/dc/dcmitype/StillImage" />
        <dc:title />
      </cc:Work>
    </rdf:RDF>
  </metadata>
  <g
     inkscape:label="Layer 1"
     inkscape:groupmode="layer"
     id="layer1"
     transform="translate(0,-924.36218)">
    <g
       id="g4132"
       transform="matrix(0.07904773,0,0,-0.09907874,69.598405,1011.2332)">
      <path
         id="path4134"
         d="m 80.50234,46.79886 q -30.97565,0 -53.101118,19.59082 -22.1254637,19.590821 -22.1254637,48.5106 0,51.3093 55.3136607,103.55149 55.313661,52.24218 143.815511,52.24218 137.17788,0 210.19192,-69.03432 73.01403,-69.03432 73.01403,-180.981866 0,-69.034322 -24.33801,-119.410723 -24.33801,-50.376401 -67.48266,-78.363281 -44.25094,-29.85268 -89.60814,-41.04744 -47.56975,-12.12765 -101.77714,-12.12765 -43.14466,0 -79.65167,14.92634 -38.719555,15.85924 -59.738751,37.31585 -22.125462,23.3224 -37.613287,47.57771 -15.487825,24.2553 -23.2317378,41.047442 -6.637639,16.792127 -6.637639,25.18819 0,11.194759 14.3815518,11.194759 9.956459,0 13.275279,-9.328963 17.700371,-62.504048 66.376393,-103.551488 48.676021,-41.04743 112.839861,-41.04743 35.40075,0 59.73876,9.32896 24.33801,9.32896 37.61329,22.38951 13.27528,13.06054 19.91292,38.24874 6.63764,25.1882 8.85018,48.510614 2.21255,23.322406 2.21255,60.638255 v 48.510605 48.510605 q 0,37.315851 -2.21255,59.705361 -2.21254,22.38951 -8.85018,48.5106 -6.63764,26.12109 -19.91292,39.18164 -13.27528,13.99345 -37.61329,22.38951 -24.33801,8.39607 -59.73876,8.39607 -85.18304,0 -136.071595,-56.90667 5.531365,0.93289 15.487819,0.93289 35.400736,0 58.632476,-22.3895 23.23174,-22.38952 23.23174,-51.3093 0,-33.584261 -27.65683,-52.242186 Q 110.37171,46.79886 80.50234,46.79886 Z"
         inkscape:connector-curvature="0"
         style="fill:#3b3f45;stroke-width:1.01589274" />
    </g>
    <text
       xml:space="preserve"
       style="font-style:normal;font-weight:normal;font-size:47.55173874px;line-height:1.25;font-family:sans-serif;letter-spacing:0px;word-spacing:0px;fill:#000000;fill-opacity:1;stroke:none;stroke-width:1.18879342"
       x="13.91854"
       y="1021.2814"
       id="text825"
       transform="scale(1.0511858,0.95130664)"><tspan
         sodipodi:role="line"
         id="tspan823"
         x="13.91854"
         y="1021.2814"
         style="stroke-width:1.18879342">3</tspan></text>
    <text
       xml:space="preserve"
       style="font-style:normal;font-weight:normal;font-size:58.02353287px;line-height:1.25;font-family:sans-serif;letter-spacing:0px;word-spacing:0px;fill:#000000;fill-opacity:1;stroke:none;stroke-width:1.45058835"
       x="4.2362213"
       y="2012.339"
       id="text829"
       transform="scale(2.0354279,0.49129718)"><tspan
         sodipodi:role="line"
         id="tspan827"
         x="4.2362213"
         y="2012.339"
         style="stroke-width:1.45058835">/</tspan></text>
    <text
       xml:space="preserve"
       style="font-style:normal;font-weight:normal;font-size:40px;line-height:1.25;font-family:sans-serif;letter-spacing:0px;word-spacing:0px;fill:#000000;fill-opacity:1;stroke:none"
       x="-80"
       y="972.36218"
       id="text833"><tspan
         sodipodi:role="line"
         id="tspan831"
         x="-80"
         y="1008.8554"></tspan></text>
    <text
       xml:space="preserve"
       style="font-style:normal;font-weight:normal;font-size:50.14276123px;line-height:1.25;font-family:sans-serif;letter-spacing:0px;word-spacing:0px;fill:#000000;fill-opacity:1;stroke:none;stroke-width:1.25356901"
       x="15.123253"
       y="1066.3101"
       id="text837"
       transform="scale(1.0449458,0.95698747)"><tspan
         sodipodi:role="line"
         id="tspan835"
         x="15.123253"
         y="1066.3101"
         style="stroke-width:1.25356901">4</tspan></text>
  </g>
</svg>
